# xmcd CD database file
#
# Track frame offsets:
#	150
#	21562
#	33995
#	55946
#	71851
#	88814
#	114282
#	128324
#	145538
#	167669
#	186726
#	205207
#
# Disc length: 3160 seconds
#
# Revision: 0
# Processed by: cddbd v1.5.2PL0 Copyright (c) Steve Scherf et al.
# Submitted via: CDex 1.51
#
DISCID=aa0c560c
DTITLE=Greg Allman - Low Country Blues
DYEAR=1900
DGENRE=Blues
TTITLE0=Floating Bridge
TTITLE1=Little By Little
TTITLE2=Devil Got My Woman
TTITLE3=I Can't Be Satisfied
TTITLE4=Blind Man
TTITLE5=Just Another Rider
TTITLE6=Please Accept My Love
TTITLE7=I Believe I'll Go Back Home
TTITLE8=Tears, Tears, Tears
TTITLE9=My Love Is Your Love
TTITLE10=Checking On My Baby
TTITLE11=Rolling Stone
EXTD=
EXTT0=
EXTT1=
EXTT2=
EXTT3=
EXTT4=
EXTT5=
EXTT6=
EXTT7=
EXTT8=
EXTT9=
EXTT10=
EXTT11=
PLAYORDER=
